<?xml version="1.0" encoding="UTF-8" standalone="no"?>
<!DOCTYPE svg PUBLIC "-//W3C//DTD SVG 1.1//EN" "http://www.w3.org/Graphics/SVG/1.1/DTD/svg11.dtd">
<svg width="100%" height="100%" viewBox="0 0 512 512" version="1.1" xmlns="http://www.w3.org/2000/svg" xmlns:xlink="http://www.w3.org/1999/xlink" xml:space="preserve" xmlns:serif="http://www.serif.com/" style="fill-rule:evenodd;clip-rule:evenodd;stroke-linejoin:round;stroke-miterlimit:2;">
    <defs>  
        <linearGradient id="main-icon-gradient" x1="50%" y1="0%" x2="50%" y2="100%" > 
            
            <stop offset="0%" stop-color="#DF522D">
                <animate attributeName="stop-color" values="#DF522D; #BC48C8; #DF522D" dur="4s" repeatCount="indefinite"></animate>
            </stop>

            <stop offset="100%" stop-color="#BC48C8">
                <animate attributeName="stop-color" values="#BC48C8; #7A5FFF; #BC48C8" dur="4s" repeatCount="indefinite"></animate>
            </stop>

        </linearGradient> 

    </defs>

    <g transform="matrix(1,0,0,1,-2626.55,-1789.81)">
        <g id="Artboard2" transform="matrix(1,0,0,1,1999.51,1219.59)">
            <rect x="627.037" y="570.217" width="512" height="512" style="fill:none;"/>
            <g transform="matrix(1,0,0,1,512.037,0.217212)">
                <path id="icon" fill="url('#main-icon-gradient')" d="M332.274,932.386L274.08,932.386L361.117,795.861L369.024,808.262L298.392,919.052L324.962,919.052L361.117,862.34L369.023,874.742L332.274,932.386ZM467.92,932.386L409.726,932.386L351.786,841.502L359.692,829.1L417.038,919.052L443.608,919.052L394.168,841.502L402.074,829.1L467.92,932.386ZM417.038,732.948L380.883,789.66L372.977,777.258L409.726,719.614L467.92,719.614L380.883,856.139L372.977,843.738L443.608,732.948L417.038,732.948ZM298.392,732.948L347.833,810.498L339.926,822.9L274.08,719.614L332.274,719.614L390.214,810.498L382.308,822.9L324.962,732.948L298.392,732.948Z" fill-rule="evenodd"/>
            </g>
        </g>
        <g id="meow-x" serif:id="meow x">
        </g>
    </g>
</svg>
